# This file uses centimeters as units for non-parametric coordinates.

mtllib R_FootO.mtl
g L_FootO:default1
v -0.473106 -0.192565 0.618792
v 0.526894 -0.192565 0.618792
v -0.456513 0.524753 0.618792
v 0.510301 0.524753 0.618792
v -0.456513 0.524753 -0.178085
v 0.510301 0.524753 -0.178085
v -0.473106 -0.192565 -0.139656
v 0.526894 -0.192565 -0.139656
v -0.473106 0.106597 0.618792
v 0.526894 0.106597 0.618792
v 0.510301 0.106597 -0.282392
v -0.456513 0.106597 -0.282392
v -0.380283 0.060789 0.618792
v 0.434071 0.060789 0.618792
v 0.420559 0.492454 0.618792
v -0.366771 0.492454 0.618792
v -0.380283 -0.192565 0.618792
v 0.434071 -0.192565 0.618792
v -0.380283 0.060789 1.056158
v 0.434071 0.060789 1.056158
v 0.434071 0.304431 1.056158
v -0.380283 0.304431 1.056158
v -0.380283 -0.192565 1.056158
v 0.434071 -0.192565 1.056158
v -0.295314 0.059565 1.056158
v 0.349102 0.059565 1.056158
v 0.320569 0.252364 1.056158
v -0.266780 0.252364 1.056158
v -0.295314 -0.192564 1.056158
v 0.349102 -0.192564 1.056158
v -0.295314 -0.087118 1.659613
v 0.349102 -0.087118 1.659613
v 0.306273 0.105681 1.659613
v -0.252484 0.105681 1.659613
v -0.295314 -0.192565 1.659613
v 0.349102 -0.192565 1.659613
vt 0.000000 0.000000
vt 0.000000 0.000000
vt 0.000000 0.000000
vt 0.613461 0.310314
vt 0.757607 0.346280
vt 0.613366 0.621018
vt 0.757624 0.621014
vt 0.510208 0.359567
vt 0.510232 0.621018
vt 0.644383 0.310704
vt 0.644286 0.000000
vt 0.788529 0.274737
vt 0.541130 0.261452
vt 0.788544 0.000004
vt 0.541152 0.000001
vt 0.351828 0.925912
vt 0.200991 0.861012
vt 0.351788 0.777008
vt 0.200991 0.777008
vt 0.200991 0.689655
vt 0.351788 0.689655
vt 0.792368 0.236256
vt 0.792409 0.087352
vt 0.943206 0.171356
vt 0.943206 0.087352
vt 0.792409 0.000000
vt 0.943206 0.000000
vt 0.509388 0.690142
vt 0.459513 0.897249
vt 0.442506 0.689766
vt 0.391777 0.896768
vt 0.355976 0.689656
vt 0.355600 0.896721
vt 1.000000 0.769273
vt 0.933117 0.769561
vt 0.950396 0.562101
vt 0.882659 0.562494
vt 0.846587 0.769558
vt 0.846481 0.562493
vt 0.000000 0.333381
vt 0.000000 0.000000
vt 0.274782 0.333381
vt 0.274782 0.000000
vt 0.278295 0.344824
vt 0.278295 0.000000
vt 0.539827 0.344824
vt 0.539827 0.000000
vt 0.846288 0.628349
vt 0.841544 0.888526
vt 0.689050 0.621015
vt 0.684143 0.890122
vt 0.761447 0.562300
vt 0.761447 0.281491
vt 0.912261 0.562300
vt 0.912261 0.281491
vt 0.199641 0.875436
vt 0.000000 0.874007
vt 0.196293 0.664313
vt 0.006371 0.662953
vt 0.262834 0.602990
vt 0.262834 0.380780
vt 0.470920 0.602990
vt 0.470920 0.380780
vt 0.550434 0.872531
vt 0.550434 0.650321
vt 0.616916 0.857762
vt 0.514073 0.650321
vt 0.616916 0.665089
vt 0.514073 0.872531
vt 0.000000 0.659622
vt 0.003306 0.336321
vt 0.144115 0.661095
vt 0.147421 0.337795
vt 0.254901 0.667777
vt 0.258320 0.333380
vt 0.506705 0.350595
vt 0.495561 0.381537
vt 0.362520 0.344842
vt 0.506633 0.683967
vt 0.346718 0.376846
vt 0.495503 0.653020
vt 0.259364 0.344820
vt 0.362446 0.689657
vt 0.912190 0.216697
vt 0.346657 0.657647
vt 0.259306 0.689627
vt 0.259282 0.657625
vt 0.681605 0.621016
vt 0.663651 0.660156
vt 0.597596 0.621022
vt 0.681597 0.901828
vt 0.597176 0.650320
vt 0.663644 0.862691
vt 0.510252 0.621019
vt 0.597584 0.901836
vt 0.510251 0.650321
vt 0.597160 0.872538
vt 0.510217 0.872546
vt 0.510208 0.901849
vt 0.999553 0.216697
vt 0.258969 0.344864
vt 0.912190 0.184689
vn 0.000000 0.000000 1.000000
vn 0.000000 0.000000 1.000000
vn 0.000000 0.000000 1.000000
vn 0.000000 0.000000 1.000000
vn 0.000000 0.000000 1.000000
vn 0.000000 0.000000 1.000000
vn 0.000000 1.000000 0.000000
vn 0.000000 1.000000 0.000000
vn 0.000000 1.000000 0.000000
vn 0.000000 1.000000 0.000000
vn 0.000000 1.000000 0.000000
vn 0.000000 1.000000 0.000000
vn -0.000000 0.242028 -0.970269
vn -0.000000 0.242028 -0.970269
vn 0.000000 -0.059021 -0.998257
vn 0.000000 -0.059021 -0.998257
vn -0.000000 0.242028 -0.970269
vn 0.000000 -0.063808 -0.997962
vn 0.000000 -1.000000 0.000000
vn 0.000000 -1.000000 0.000000
vn 0.000000 -1.000000 0.000000
vn 0.000000 -1.000000 0.000000
vn 0.000000 -1.000000 0.000000
vn 0.000000 -1.000000 0.000000
vn 0.999621 0.020481 -0.018405
vn 0.999817 0.013117 -0.013935
vn 0.999747 0.021747 -0.005691
vn 0.999747 0.021747 -0.005691
vn 0.999817 0.013117 -0.013935
vn 0.999214 0.039649 0.000000
vn -0.999621 0.020481 -0.018405
vn -0.999747 0.021747 -0.005691
vn -0.999817 0.013117 -0.013935
vn -0.999817 0.013117 -0.013935
vn -0.999747 0.021747 -0.005691
vn -0.999214 0.039649 0.000000
vn 0.000000 0.000000 1.000000
vn 0.000000 0.000000 1.000000
vn 0.000000 0.000000 1.000000
vn 0.000000 0.000000 1.000000
vn 0.000000 0.000000 1.000000
vn 0.000000 0.000000 1.000000
vn 1.000000 0.000000 0.000000
vn 0.999116 0.039100 -0.015423
vn 0.999747 0.021747 -0.005691
vn 0.999747 0.021747 -0.005691
vn 0.999116 0.039100 -0.015423
vn 0.999621 0.020481 -0.018405
vn 0.000000 -0.059021 -0.998257
vn 0.000000 -0.063808 -0.997962
vn 0.000000 -0.430616 -0.902535
vn 0.000000 -0.430616 -0.902535
vn 0.000000 -0.063808 -0.997962
vn 0.000000 -0.430616 -0.902535
vn -1.000000 0.000000 0.000000
vn -0.999747 0.021747 -0.005691
vn -0.999116 0.039100 -0.015423
vn -0.999116 0.039100 -0.015423
vn -0.999747 0.021747 -0.005691
vn -0.999621 0.020481 -0.018405
vn 0.000000 0.000000 1.000000
vn 0.000000 0.000000 1.000000
vn 0.000000 0.000000 1.000000
vn 0.000000 0.000000 1.000000
vn 0.000000 0.000000 1.000000
vn 0.000000 0.000000 1.000000
vn 0.000000 0.000000 1.000000
vn 0.000000 0.000000 1.000000
vn 0.000000 0.000000 1.000000
vn 0.000000 0.000000 1.000000
vn 0.000000 0.000000 1.000000
vn 0.000000 0.000000 1.000000
vn 0.000000 0.000000 1.000000
vn 0.000000 0.000000 1.000000
vn 0.000000 0.000000 1.000000
vn 0.000000 0.000000 1.000000
vn 0.000000 0.000000 1.000000
vn 0.000000 0.000000 1.000000
vn 0.000000 0.000000 0.000000
vn 0.000000 0.000000 0.000000
vn 0.000000 0.000000 0.000000
vn 0.000000 0.000000 0.000000
vn 0.000000 0.000000 0.000000
vn 0.000000 0.000000 0.000000
vn 0.000000 0.000000 1.000000
vn 0.000000 0.000000 1.000000
vn 0.000000 0.000000 1.000000
vn 0.000000 0.000000 1.000000
vn 0.000000 0.000000 1.000000
vn 0.000000 0.000000 1.000000
vn 0.000000 0.000000 1.000000
vn 0.000000 0.000000 1.000000
vn 0.000000 0.000000 1.000000
vn 0.000000 0.000000 1.000000
vn 0.000000 0.000000 1.000000
vn 0.000000 0.000000 1.000000
vn 0.999359 0.031283 -0.017427
vn 0.999766 0.018901 -0.010529
vn 0.999602 0.024640 -0.013726
vn 0.999602 0.024640 -0.013726
vn 0.999766 0.018901 -0.010529
vn 1.000000 0.000000 0.000000
vn 0.000000 0.918703 0.394949
vn 0.000000 0.918703 0.394949
vn 0.000000 0.918703 0.394949
vn 0.000000 0.918703 0.394949
vn 0.000000 0.918703 0.394949
vn 0.000000 0.918703 0.394949
vn -0.999359 0.031283 -0.017427
vn -0.999602 0.024640 -0.013726
vn -0.999766 0.018901 -0.010529
vn -0.999766 0.018901 -0.010529
vn -0.999602 0.024640 -0.013726
vn -1.000000 0.000000 0.000000
vn 0.000000 -1.000000 0.000000
vn 0.000000 -1.000000 0.000000
vn 0.000000 -1.000000 0.000000
vn 0.000000 -1.000000 0.000000
vn 0.000000 -1.000000 0.000000
vn 0.000000 -1.000000 0.000000
vn 1.000000 0.000000 0.000000
vn 1.000000 0.000000 0.000000
vn 1.000000 0.000000 0.000000
vn 1.000000 0.000000 0.000000
vn 1.000000 0.000000 0.000000
vn 1.000000 0.000000 0.000000
vn -1.000000 0.000000 0.000000
vn -1.000000 0.000000 0.000000
vn -1.000000 0.000000 0.000000
vn -1.000000 0.000000 0.000000
vn -1.000000 0.000000 0.000000
vn -1.000000 0.000000 0.000000
vn 0.000000 0.000000 1.000000
vn 0.000000 0.000000 1.000000
vn 0.000000 0.000000 1.000000
vn 0.000000 0.000000 1.000000
vn 0.000000 0.000000 1.000000
vn 0.000000 0.000000 1.000000
vn 0.000000 0.000000 1.000000
vn 0.000000 0.000000 1.000000
vn 0.000000 0.000000 1.000000
vn 0.000000 0.000000 1.000000
vn 0.000000 0.000000 1.000000
vn 0.000000 0.000000 1.000000
vn -0.000001 0.000000 1.000000
vn 0.000000 0.000000 1.000000
vn 0.000000 0.000000 1.000000
vn 0.000000 0.000000 1.000000
vn 0.000000 0.000000 1.000000
vn 0.000000 0.000000 1.000000
vn 0.000000 0.000000 0.000000
vn 0.000000 0.000000 0.000000
vn 0.000000 0.000000 1.000000
vn 0.000000 0.000000 1.000000
vn 0.000000 0.000000 0.000000
vn 0.000000 0.000000 1.000000
vn 0.000000 0.000000 1.000000
vn 0.000000 0.000000 1.000000
vn 0.000000 0.000000 1.000000
vn 0.000000 0.000000 1.000000
vn 0.000000 0.000000 1.000000
vn 0.000000 0.000000 1.000000
vn 0.000000 0.000000 1.000000
vn 0.000000 0.000000 1.000000
vn 0.000000 0.000000 1.000000
vn 0.000000 0.000000 1.000000
vn 0.000000 0.000000 1.000000
vn 0.000000 0.000000 1.000000
vn 0.987507 0.146147 0.058919
vn 0.977426 0.204323 0.053757
vn 0.985601 0.158897 0.057809
vn 0.985601 0.158897 0.057809
vn 0.977426 0.204323 0.053757
vn 0.974849 0.216559 0.052639
vn 0.000000 0.971706 0.236194
vn 0.000000 0.971706 0.236194
vn 0.000000 0.971706 0.236194
vn 0.000000 0.971706 0.236194
vn 0.000000 0.971706 0.236194
vn 0.000000 0.971706 0.236194
vn -0.987507 0.146147 0.058919
vn -0.985601 0.158897 0.057809
vn -0.977426 0.204323 0.053757
vn -0.977426 0.204323 0.053757
vn -0.985601 0.158897 0.057809
vn -0.974849 0.216559 0.052639
vn 0.000000 -1.000000 -0.000001
vn 0.000000 -1.000000 -0.000001
vn 0.000000 -1.000000 -0.000001
vn 0.000000 -1.000000 -0.000001
vn 0.000000 -1.000000 -0.000001
vn 0.000000 -1.000000 -0.000001
vn 1.000000 0.000000 0.000000
vn 1.000000 0.000000 0.000000
vn 1.000000 0.000000 0.000000
vn 1.000000 0.000000 0.000000
vn 1.000000 0.000000 0.000000
vn 1.000000 0.000000 0.000000
vn -1.000000 0.000000 0.000000
vn -1.000000 0.000000 0.000000
vn -1.000000 0.000000 0.000000
vn -1.000000 0.000000 0.000000
vn -1.000000 0.000000 0.000000
vn -1.000000 0.000000 0.000000
s off
g L_FootO:group7 L_FootO:pCube71 L_FootO:polySurface1
usemtl lambert4SG
f 31/64/1 32/65/2 34/66/3
f 34/66/4 32/65/5 33/68/6
f 3/40/7 4/41/8 5/42/9
f 5/42/10 4/41/11 6/43/12
f 5/70/13 6/71/14 12/72/15
f 12/72/16 6/71/17 11/73/18
f 7/44/19 8/45/20 1/46/21
f 1/46/22 8/45/23 2/47/24
f 11/4/25 6/5/26 10/6/27
f 10/6/28 6/5/29 4/7/30
f 12/10/31 9/11/32 5/12/33
f 5/12/34 9/11/35 3/14/36
f 35/69/37 36/67/38 31/64/39
f 31/64/40 36/67/41 32/65/42
f 2/9/43 8/8/44 10/6/45
f 10/6/46 8/8/47 11/4/48
f 12/72/49 11/73/50 7/74/51
f 7/74/52 11/73/53 8/75/54
f 1/15/55 9/11/56 7/13/57
f 7/13/58 9/11/59 12/10/60
f 4/76/61 15/77/62 10/78/63
f 10/78/64 15/77/65 14/80/66
f 4/76/67 3/79/68 15/77/69
f 15/77/70 3/79/71 16/81/72
f 3/79/73 9/83/74 16/81/75
f 16/81/76 9/83/77 13/85/78
f 1/86/79 2/101/80 17/87/81
f 2/1/82 18/3/83 17/2/84
f 10/78/85 14/80/86 2/82/87
f 2/102/88 14/100/89 18/84/90
f 9/83/91 1/86/92 13/85/93
f 13/85/94 1/86/95 17/87/96
f 15/16/97 21/17/98 14/18/99
f 14/18/100 21/17/101 20/19/102
f 15/48/103 16/49/104 21/50/105
f 21/50/106 16/49/107 22/51/108
f 16/22/109 13/23/110 22/24/111
f 22/24/112 13/23/113 19/25/114
f 17/52/115 18/53/116 23/54/117
f 23/54/118 18/53/119 24/55/120
f 18/21/121 14/18/122 24/20/123
f 24/20/124 14/18/125 20/19/126
f 13/23/127 17/26/128 19/25/129
f 19/25/130 17/26/131 23/27/132
f 21/88/133 27/89/134 20/90/135
f 20/90/136 27/89/137 26/92/138
f 21/88/139 22/91/140 27/89/141
f 27/89/142 22/91/143 28/93/144
f 22/91/145 19/95/146 28/93/147
f 28/93/148 19/95/149 25/97/150
f 23/99/151 24/94/152 29/98/153
f 29/98/154 24/94/155 30/96/156
f 20/90/157 26/92/158 24/94/159
f 24/94/160 26/92/161 30/96/162
f 19/95/163 23/99/164 25/97/165
f 25/97/166 23/99/167 29/98/168
f 27/28/169 33/29/170 26/30/171
f 26/30/172 33/29/173 32/31/174
f 27/56/175 28/57/176 33/58/177
f 33/58/178 28/57/179 34/59/180
f 28/34/181 25/35/182 34/36/183
f 34/36/184 25/35/185 31/37/186
f 29/60/187 30/61/188 35/62/189
f 35/62/190 30/61/191 36/63/192
f 26/30/193 32/31/194 30/32/195
f 30/32/196 32/31/197 36/33/198
f 25/35/199 29/38/200 31/37/201
f 31/37/202 29/38/203 35/39/204
