# This file uses centimeters as units for non-parametric coordinates.

mtllib L_HAND.mtl
g default
v -0.167540 0.016818 0.270032
v 0.113473 0.006174 0.243655
v -0.150502 0.473824 0.267175
v 0.130513 0.463181 0.240799
v -0.157110 0.025892 0.377508
v 0.123906 0.015249 0.351131
v 0.132766 0.252904 0.349645
v -0.148249 0.263547 0.376023
v -0.135062 -0.107252 0.505642
v 0.145954 -0.117894 0.479265
v 0.154816 0.119760 0.477780
v -0.126199 0.130404 0.504156
v 0.104980 0.459603 -0.483837
v -0.260405 0.473442 -0.449541
v 0.087937 0.002596 -0.480980
v -0.277445 0.016435 -0.446684
v -0.209726 0.018415 0.273992
v -0.192684 0.475422 0.271135
v 0.172698 0.461584 0.236839
v 0.155658 0.004576 0.239696
v -0.172532 -0.460510 -0.473939
v 0.192850 -0.474349 -0.508235
v -0.104814 -0.458529 0.246736
v 0.260570 -0.472368 0.212440
vt 0.343535 0.385315
vt 0.259703 0.221234
vt 0.083833 0.518002
vt 0.000000 0.353921
vt 0.180107 0.689942
vt 0.439810 0.557254
vt 0.818783 0.426314
vt 0.634655 0.433221
vt 0.829715 0.717744
vt 0.645588 0.724652
vt 0.448530 0.724534
vt 0.437597 0.433104
vt 0.000000 0.282297
vt 0.085406 0.242066
vt 0.111352 0.137911
vt 0.143312 0.166982
vt 0.158881 0.231754
vt 0.216787 0.156670
vt 0.970236 0.578726
vt 0.999895 0.398818
vt 0.941414 0.488826
vt 0.956838 0.395269
vt 0.898848 0.428056
vt 0.914271 0.334499
vt 0.721444 0.363646
vt 0.846515 0.441517
vt 0.874929 0.117129
vt 1.000000 0.195000
vt 0.919676 0.000000
vt 0.854497 0.077705
vt 0.949488 0.025006
vt 0.884308 0.102711
vt 0.997061 0.071934
vt 0.931881 0.149640
vt 0.790301 0.000000
vt 0.544040 0.153893
vt 0.868380 0.124942
vt 0.622117 0.278835
vt 0.384936 0.454292
vt 0.487266 0.413128
vt 0.347607 0.369529
vt 0.451430 0.320448
vt 0.410346 0.255279
vt 0.312419 0.305181
vt 0.286239 0.207457
vt 0.354615 0.181890
vt 0.283500 0.203646
vt 0.364872 0.178050
vt 0.173469 0.096655
vt 0.158674 0.111411
vt 0.000000 0.000000
vt 0.404058 0.000000
vt 0.295674 0.102050
vt 0.531140 0.134970
vt 0.422756 0.237019
vt 0.625685 0.309237
vt 0.517301 0.411286
vt 0.065382 0.783048
vt 0.238065 0.715666
vt 0.059135 0.767038
vt 0.231818 0.699656
vt 0.446082 0.721492
vt 0.279679 0.822314
vt 0.391973 0.582823
vn 0.093553 0.002735 0.995611
vn 0.093553 0.002735 0.995611
vn 0.093553 0.002735 0.995611
vn 0.093553 0.002735 0.995611
vn 0.037262 0.999286 -0.006248
vn 0.037262 0.999286 -0.006248
vn 0.037262 0.999286 -0.006248
vn 0.037262 0.999286 -0.006248
vn -0.093555 -0.002735 -0.995610
vn -0.093555 -0.002735 -0.995610
vn -0.093555 -0.002735 -0.995610
vn -0.093555 -0.002735 -0.995610
vn 0.994917 -0.037683 -0.093386
vn 0.994917 -0.037683 -0.093386
vn 0.994917 -0.037683 -0.093386
vn 0.994917 -0.037683 -0.093386
vn -0.994916 0.037684 0.093387
vn -0.994917 0.037684 0.093387
vn -0.994917 0.037684 0.093387
vn -0.994917 0.037684 0.093387
vn -0.029553 -0.995775 0.086945
vn -0.029553 -0.995775 0.086945
vn -0.029553 -0.995775 0.086945
vn -0.029553 -0.995775 0.086945
vn 0.994916 -0.037678 -0.093393
vn 0.994916 -0.037678 -0.093393
vn 0.994916 -0.037678 -0.093393
vn 0.994916 -0.037678 -0.093393
vn 0.100251 0.458230 0.883162
vn 0.100251 0.458230 0.883162
vn 0.100251 0.458230 0.883162
vn 0.100251 0.458230 0.883162
vn -0.994918 0.037676 0.093373
vn -0.994918 0.037676 0.093373
vn -0.994918 0.037676 0.093373
vn -0.994918 0.037676 0.093373
vn -0.093059 -0.698370 -0.709661
vn -0.093059 -0.698370 -0.709661
vn -0.093059 -0.698370 -0.709661
vn -0.093059 -0.698370 -0.709661
vn 0.977522 -0.037742 -0.207427
vn 0.977522 -0.037742 -0.207427
vn 0.977522 -0.037742 -0.207427
vn 0.977522 -0.037742 -0.207427
vn 0.093061 0.698372 0.709659
vn 0.093061 0.698372 0.709659
vn 0.093061 0.698372 0.709659
vn 0.093061 0.698372 0.709659
vn -0.977521 0.037746 0.207432
vn -0.977521 0.037746 0.207432
vn -0.977521 0.037746 0.207432
vn -0.977521 0.037746 0.207432
vn 0.093559 0.002736 0.995610
vn 0.093559 0.002736 0.995610
vn 0.093559 0.002736 0.995610
vn 0.093559 0.002736 0.995610
vn 0.054765 -0.252043 0.966165
vn 0.000000 -0.000000 0.000000
vn 0.000000 -0.000000 0.000000
vn 0.054765 -0.252043 0.966165
vn 0.093557 0.002735 0.995610
vn 0.093557 0.002735 0.995610
vn 0.093557 0.002735 0.995610
vn 0.093557 0.002735 0.995610
vn -0.092015 0.036625 -0.995084
vn -0.092015 0.036625 -0.995084
vn -0.092015 0.036625 -0.995084
vn -0.092015 0.036625 -0.995084
vn 0.971405 0.218928 -0.091883
vn 0.971405 0.218928 -0.091883
vn 0.971405 0.218928 -0.091883
vn 0.971405 0.218928 -0.091883
vn -0.971405 -0.218929 0.091881
vn -0.971405 -0.218929 0.091881
vn -0.971405 -0.218929 0.091881
vn -0.971405 -0.218929 0.091881
vn 0.092014 -0.036625 0.995084
vn 0.092014 -0.036625 0.995084
vn 0.092014 -0.036625 0.995084
vn 0.092014 -0.036625 0.995084
vn 0.092014 -0.036625 0.995084
vn 0.092014 -0.036625 0.995084
vn 0.092014 -0.036625 0.995084
vn 0.092015 -0.036626 0.995084
vn 0.092015 -0.036626 0.995084
vn 0.092015 -0.036626 0.995084
vn -0.037262 -0.999286 0.006248
vn -0.037262 -0.999286 0.006248
vn -0.037262 -0.999286 0.006248
vn -0.037262 -0.999286 0.006248
s off
g pasted__pCube51 group
usemtl pasted__blinn6SG
f 10/40/1 11/42/2 12/41/3 9/39/4
f 14/26/5 18/28/6 19/27/7 13/25/8
f 13/53/9 15/55/10 16/54/11 14/52/12
f 13/2/13 19/4/14 20/3/15 15/1/16
f 16/8/17 17/10/18 18/9/19 14/7/20
f 2/30/21 6/32/22 5/31/23 1/29/24
f 7/14/25 6/16/26 2/15/27 4/13/28
f 3/45/29 8/44/30 7/43/31 4/46/32
f 1/20/33 5/22/34 8/21/35 3/19/36
f 6/32/37 10/34/38 9/33/39 5/31/40
f 11/17/41 10/18/42 6/16/43 7/14/44
f 12/41/45 11/42/46 7/43/47 8/44/48
f 5/22/49 9/24/50 12/23/51 8/21/52
f 3/45/53 18/47/54 17/49/55 1/50/56
f 4/46/57 19/48/58 18/47/59 3/45/60
f 2/59/61 20/61/62 19/60/63 4/58/64
f 15/55/65 22/57/66 21/56/67 16/54/68
f 15/1/69 20/3/70 24/5/71 22/6/72
f 23/11/73 17/10/74 16/8/75 21/12/76
f 20/61/77 2/59/78 23/62/79 24/64/80
f 17/49/81 23/51/82 1/50/83
f 23/62/84 2/59/85 1/63/86
f 21/36/87 22/38/88 24/37/89 23/35/90
