# This file uses centimeters as units for non-parametric coordinates.

mtllib L_LEG1.mtl
g default
v 0.274562 -1.308828 0.352419
v 0.385336 -1.074334 0.415352
v 0.448618 -1.075036 0.346262
v -0.386043 -1.065775 0.346461
v -0.317690 -1.066534 0.415802
v -0.200604 -1.307123 0.352870
v 0.480361 0.412308 0.316473
v 0.417187 0.413009 0.390334
v 0.404353 0.555198 0.315750
v -0.308208 0.555199 0.317354
v -0.329896 0.421298 0.397051
v -0.411170 0.422200 0.323883
v 0.471612 0.412404 -0.325750
v 0.399878 0.477448 -0.325318
v 0.406204 0.413130 -0.411377
v -0.340869 0.421419 -0.404678
v -0.311546 0.506890 -0.325131
v -0.419924 0.422296 -0.318332
v 0.449463 -1.075046 -0.295001
v 0.386379 -1.074346 -0.376910
v 0.276170 -1.290211 -0.293136
v -0.200167 -1.294660 -0.292572
v -0.316646 -1.066545 -0.376460
v -0.385198 -1.065784 -0.294802
v 0.464545 -0.336657 0.403530
v -0.379361 -0.327293 0.404505
v -0.463783 -0.326356 0.332671
v -0.463914 -0.326355 -0.322261
v -0.379532 -0.327291 -0.406816
v 0.464374 -0.336655 -0.407791
v 0.539330 -0.337487 -0.323114
v 0.539461 -0.337488 0.331818
vt 0.693363 0.464697
vt 0.693164 0.506269
vt 0.516874 0.485203
vt 0.516755 0.465020
vt 0.713674 0.467031
vt 0.493208 0.467437
vt 0.517480 0.258082
vt 0.697583 0.258077
vt 0.717303 0.260846
vt 0.494194 0.260852
vt 0.525211 0.059856
vt 0.701555 0.059887
vt 0.720554 0.062226
vt 0.502687 0.062187
vt 0.703248 0.001992
vt 0.525724 0.007018
vt 0.284075 0.278566
vt 0.464178 0.278571
vt 0.463097 0.481380
vt 0.286491 0.481057
vt 0.280283 0.074146
vt 0.456626 0.074115
vt 0.486842 0.478459
vt 0.487430 0.275452
vt 0.288287 0.513858
vt 0.464967 0.500788
vt 0.264321 0.275446
vt 0.266371 0.478053
vt 0.278520 0.001992
vt 0.456013 0.005378
vt 0.479082 0.071581
vt 0.261214 0.071620
vt 0.474985 0.747019
vt 0.474544 0.552566
vt 0.651224 0.550016
vt 0.651276 0.743160
vt 0.674941 0.742704
vt 0.673099 0.539114
vt 0.649354 0.517570
vt 0.338157 0.517570
vt 0.468297 0.517725
vt 0.468839 0.695218
vt 0.339227 0.695094
vt 0.062328 0.062226
vt 0.100513 0.001992
vt 0.230125 0.018578
vt 0.253914 0.088206
vt 0.245664 0.292032
vt 0.015685 0.260846
vt 0.206767 0.494640
vt 0.003174 0.467031
vt 0.001853 0.506269
vt 0.196306 0.530445
vt 0.773922 0.998008
vt 0.736523 0.942839
vt 0.928110 0.916858
vt 0.904063 0.983061
vt 0.690211 0.744174
vt 0.920190 0.712987
vt 0.680647 0.537589
vt 0.884237 0.509981
vn 0.801830 -0.597358 -0.015230
vn 0.801830 -0.597358 -0.015230
vn 0.801830 -0.597358 -0.015230
vn 0.778819 -0.627248 0.001035
vn 0.778819 -0.627248 0.001035
vn 0.778819 -0.627248 0.001035
vn -0.000013 -0.259203 0.965823
vn -0.000013 -0.259203 0.965823
vn -0.000013 -0.259203 0.965823
vn -0.002200 -0.254063 0.967185
vn -0.002200 -0.254064 0.967185
vn -0.002200 -0.254063 0.967185
vn 0.690239 0.069146 0.720271
vn 0.690239 0.069146 0.720271
vn 0.690239 0.069146 0.720271
vn 0.758883 0.059356 0.648517
vn 0.758883 0.059356 0.648517
vn 0.758883 0.059356 0.648517
vn -0.792745 -0.609429 -0.012304
vn -0.792745 -0.609429 -0.012304
vn -0.792745 -0.609429 -0.012304
vn -0.777654 -0.628692 -0.001015
vn -0.777654 -0.628692 -0.001015
vn -0.777654 -0.628692 -0.001015
vn -0.646731 0.054387 0.760777
vn -0.646731 0.054387 0.760777
vn -0.646731 0.054387 0.760777
vn -0.667861 0.051525 0.742500
vn -0.667861 0.051525 0.742500
vn -0.667861 0.051525 0.742500
vn 0.881247 0.468444 -0.062966
vn 0.881247 0.468444 -0.062966
vn 0.881247 0.468444 -0.062966
vn 0.671656 0.740808 -0.009038
vn 0.671656 0.740808 -0.009038
vn 0.671656 0.740808 -0.009038
vn 0.001994 0.464655 0.885489
vn 0.001994 0.464655 0.885489
vn 0.001994 0.464655 0.885489
vn 0.013390 0.509806 0.860185
vn 0.013390 0.509806 0.860185
vn 0.013390 0.509806 0.860185
vn -0.790433 0.612453 0.010866
vn -0.790432 0.612453 0.010866
vn -0.790433 0.612453 0.010866
vn -0.616515 0.785360 -0.055849
vn -0.616515 0.785360 -0.055849
vn -0.616515 0.785360 -0.055849
vn 0.793552 0.058668 -0.605668
vn 0.793552 0.058668 -0.605668
vn 0.793552 0.058668 -0.605668
vn 0.747504 0.065179 -0.661052
vn 0.747504 0.065179 -0.661052
vn 0.747504 0.065179 -0.661052
vn 0.033023 0.801737 -0.596763
vn 0.033023 0.801737 -0.596763
vn 0.033023 0.801737 -0.596763
vn 0.000991 0.681101 -0.732189
vn 0.000991 0.681101 -0.732189
vn 0.000991 0.681101 -0.732189
vn -0.736771 0.039974 -0.674960
vn -0.736771 0.039974 -0.674960
vn -0.736771 0.039974 -0.674960
vn -0.706856 0.045239 -0.705909
vn -0.706856 0.045239 -0.705909
vn -0.706856 0.045239 -0.705909
vn 0.002286 -0.362810 -0.931861
vn 0.002286 -0.362810 -0.931861
vn 0.002286 -0.362810 -0.931861
vn -0.004452 -0.347147 -0.937800
vn -0.004452 -0.347147 -0.937800
vn -0.004452 -0.347147 -0.937800
vn 0.001352 0.017685 0.999843
vn 0.001352 0.017685 0.999843
vn 0.001352 0.017685 0.999843
vn 0.009093 0.009356 0.999915
vn 0.009093 0.009356 0.999915
vn 0.009093 0.009356 0.999915
vn -0.000268 0.992726 -0.120397
vn -0.000268 0.992726 -0.120397
vn -0.000268 0.992726 -0.120397
vn 0.041213 0.996322 -0.075129
vn 0.041213 0.996322 -0.075129
vn 0.041213 0.996322 -0.075129
vn -0.008931 0.003317 -0.999955
vn -0.008931 0.003317 -0.999955
vn -0.008931 0.003317 -0.999955
vn -0.001209 -0.004877 -0.999987
vn -0.001209 -0.004877 -0.999987
vn -0.001209 -0.004877 -0.999987
vn 0.009302 -0.999542 -0.028803
vn 0.009302 -0.999542 -0.028803
vn 0.009302 -0.999542 -0.028803
vn -0.003606 -0.999807 -0.019308
vn -0.003606 -0.999807 -0.019308
vn -0.003606 -0.999807 -0.019308
vn -0.997539 0.070116 0.000199
vn -0.997539 0.070116 0.000199
vn -0.997539 0.070116 0.000199
vn -0.998190 0.058581 0.013614
vn -0.998190 0.058581 0.013614
vn -0.998190 0.058581 0.013614
vn 0.996908 0.078574 -0.000198
vn 0.996908 0.078574 -0.000198
vn 0.996908 0.078574 -0.000198
vn 0.995860 0.089883 -0.013552
vn 0.995860 0.089883 -0.013552
vn 0.995860 0.089883 -0.013552
vn 0.649425 -0.467703 0.599585
vn 0.649425 -0.467703 0.599585
vn 0.649425 -0.467703 0.599585
vn -0.631585 -0.468879 0.617457
vn -0.631585 -0.468879 0.617457
vn -0.631585 -0.468879 0.617457
vn 0.705271 0.378191 0.599637
vn 0.705271 0.378191 0.599637
vn 0.705271 0.378191 0.599637
vn -0.582789 0.483245 0.653323
vn -0.582789 0.483245 0.653323
vn -0.582789 0.483245 0.653323
vn 0.597974 0.662484 -0.451156
vn 0.597974 0.662484 -0.451156
vn 0.597974 0.662484 -0.451156
vn -0.549095 0.662529 -0.509461
vn -0.549095 0.662529 -0.509461
vn -0.549095 0.662529 -0.509461
vn 0.664682 -0.539809 -0.516531
vn 0.664682 -0.539809 -0.516531
vn 0.664682 -0.539809 -0.516531
vn -0.651114 -0.531661 -0.541652
vn -0.651114 -0.531660 -0.541652
vn -0.651114 -0.531660 -0.541652
vn 0.000810 0.015348 0.999882
vn 0.000810 0.015348 0.999882
vn 0.000810 0.015348 0.999882
vn 0.001331 0.015881 0.999873
vn 0.001331 0.015881 0.999873
vn 0.001331 0.015881 0.999873
vn -0.711584 -0.048653 0.700914
vn -0.711584 -0.048653 0.700914
vn -0.711584 -0.048653 0.700914
vn -0.647445 -0.053893 0.760204
vn -0.647445 -0.053893 0.760204
vn -0.647445 -0.053893 0.760204
vn -0.994515 -0.104585 -0.001308
vn -0.994515 -0.104585 -0.001308
vn -0.994515 -0.104585 -0.001308
vn -0.994382 -0.105849 0.000198
vn -0.994382 -0.105849 0.000198
vn -0.994382 -0.105849 0.000198
vn -0.704764 -0.101102 -0.702201
vn -0.704764 -0.101102 -0.702201
vn -0.704764 -0.101102 -0.702201
vn -0.763124 -0.091187 -0.639786
vn -0.763124 -0.091187 -0.639786
vn -0.763124 -0.091187 -0.639786
vn -0.001611 -0.041165 -0.999151
vn -0.001611 -0.041165 -0.999151
vn -0.001611 -0.041165 -0.999151
vn -0.001102 -0.041709 -0.999129
vn -0.001102 -0.041709 -0.999129
vn -0.001102 -0.041709 -0.999129
vn 0.743188 -0.115673 -0.659008
vn 0.743188 -0.115672 -0.659008
vn 0.743188 -0.115673 -0.659008
vn 0.787127 -0.108638 -0.607148
vn 0.787127 -0.108638 -0.607148
vn 0.787127 -0.108638 -0.607148
vn 0.992502 -0.122219 0.001309
vn 0.992502 -0.122219 0.001309
vn 0.992502 -0.122219 0.001309
vn 0.992658 -0.120958 -0.000198
vn 0.992658 -0.120958 -0.000198
vn 0.992658 -0.120958 -0.000198
vn 0.735362 -0.068155 0.674239
vn 0.735362 -0.068155 0.674238
vn 0.735362 -0.068155 0.674239
vn 0.689348 -0.070787 0.720963
vn 0.689348 -0.070787 0.720963
vn 0.689348 -0.070787 0.720963
s off
g pasted__pCube11 group
usemtl pasted__blinn7SG
f 1/15/1 21/16/2 3/12/3
f 21/16/4 19/11/5 3/12/6
f 1/45/7 2/44/8 6/46/9
f 2/44/10 5/47/11 6/46/12
f 32/8/13 7/1/14 25/9/15
f 7/1/16 8/5/17 25/9/18
f 6/29/19 4/21/20 22/30/21
f 4/21/22 24/22/23 22/30/24
f 27/17/25 26/27/26 12/20/27
f 26/27/28 11/28/29 12/20/30
f 9/2/31 7/1/32 14/3/33
f 7/1/34 13/4/35 14/3/36
f 9/52/37 10/53/38 8/51/39
f 10/53/40 11/50/41 8/51/42
f 12/20/43 10/25/44 18/19/45
f 10/25/46 17/26/47 18/19/48
f 15/6/49 13/4/50 30/10/51
f 13/4/52 31/7/53 30/10/54
f 14/36/55 15/37/56 17/35/57
f 15/37/58 16/38/59 17/35/60
f 16/23/61 29/24/62 18/19/63
f 29/24/64 28/18/65 18/19/66
f 21/54/67 22/57/68 20/55/69
f 22/57/70 23/56/71 20/55/72
f 25/49/73 8/51/74 26/48/75
f 8/51/76 11/50/77 26/48/78
f 9/33/79 14/36/80 10/34/81
f 14/36/82 17/35/83 10/34/84
f 16/61/85 15/60/86 29/59/87
f 15/60/88 30/58/89 29/59/90
f 21/40/91 1/43/92 22/41/93
f 1/43/94 6/42/95 22/41/96
f 27/17/97 12/20/98 28/18/99
f 12/20/100 18/19/101 28/18/102
f 32/8/103 31/7/104 7/1/105
f 31/7/106 13/4/107 7/1/108
f 1/15/109 3/12/110 2/13/111
f 4/21/112 6/29/113 5/32/114
f 7/1/115 9/2/116 8/5/117
f 10/25/118 12/20/119 11/28/120
f 13/4/121 15/6/122 14/3/123
f 16/38/124 18/39/125 17/35/126
f 19/11/127 21/16/128 20/14/129
f 22/30/130 24/22/131 23/31/132
f 5/47/133 2/44/134 26/48/135
f 2/44/136 25/49/137 26/48/138
f 5/32/139 26/27/140 4/21/141
f 26/27/142 27/17/143 4/21/144
f 4/21/145 27/17/146 24/22/147
f 27/17/148 28/18/149 24/22/150
f 28/18/151 29/24/152 24/22/153
f 29/24/154 23/31/155 24/22/156
f 29/59/157 30/58/158 23/56/159
f 30/58/160 20/55/161 23/56/162
f 31/7/163 19/11/164 30/10/165
f 19/11/166 20/14/167 30/10/168
f 3/12/169 19/11/170 32/8/171
f 19/11/172 31/7/173 32/8/174
f 2/13/175 3/12/176 25/9/177
f 3/12/178 32/8/179 25/9/180
