# This file uses centimeters as units for non-parametric coordinates.

mtllib L_HandO.mtl
g default
v -0.169049 0.032221 0.225790
v 0.070224 -0.022462 0.202897
v -0.080355 0.421372 0.223286
v 0.158920 0.366689 0.200394
v -0.158681 0.038326 0.319594
v 0.080595 -0.016357 0.296701
v 0.126718 0.186011 0.295399
v -0.112557 0.240694 0.318292
v -0.161412 -0.079412 0.431439
v 0.077864 -0.134095 0.408546
v 0.123988 0.068273 0.407244
v -0.115287 0.122957 0.430136
v 0.136760 0.367670 -0.432045
v -0.174352 0.438772 -0.402279
v 0.048063 -0.021480 -0.429541
v -0.263049 0.049621 -0.399775
v -0.204969 0.040430 0.229227
v -0.116272 0.429581 0.226723
v 0.194840 0.358480 0.196957
v 0.106143 -0.030671 0.199461
v -0.250380 -0.376401 -0.423496
v 0.060730 -0.447502 -0.453262
v -0.192301 -0.385591 0.205506
v 0.118811 -0.456692 0.175740
vt 0.522510 0.218975
vt 0.523759 0.413076
vt 0.208776 0.214391
vt 0.210025 0.408492
vt 0.220607 0.001899
vt 0.534342 0.006483
vt 0.552629 0.413076
vt 0.553878 0.218975
vt 0.866364 0.408492
vt 0.867613 0.214391
vt 0.855781 0.001899
vt 0.542047 0.006483
vt 0.212658 0.697730
vt 0.165271 0.607611
vt 0.211410 0.503628
vt 0.164622 0.506673
vt 0.109485 0.548885
vt 0.108836 0.447948
vt 0.001992 0.951503
vt 0.003241 0.757402
vt 0.049379 0.861384
vt 0.050029 0.760447
vt 0.105165 0.802659
vt 0.105815 0.701721
vt 0.564252 0.745649
vt 0.409075 0.730802
vt 0.593221 0.431914
vt 0.438044 0.417067
vt 0.124696 0.874158
vt 0.113277 0.754813
vt 0.171484 0.868987
vt 0.160065 0.749640
vt 0.227270 0.870349
vt 0.215851 0.751003
vt 0.247762 0.745649
vt 0.218794 0.431914
vt 0.402939 0.730802
vt 0.373970 0.417067
vt 0.621082 0.569784
vt 0.740428 0.542509
vt 0.644088 0.670721
vt 0.763434 0.643446
vt 0.764796 0.702172
vt 0.645450 0.729447
vt 0.661511 0.819566
vt 0.780857 0.792291
vt 0.643597 0.823660
vt 0.798774 0.788196
vt 0.599356 0.629559
vt 0.617273 0.625464
vt 0.605675 0.417067
vt 0.046232 0.001899
vt 0.201409 0.037363
vt 0.001992 0.196001
vt 0.157169 0.231464
vt 0.008311 0.408493
vt 0.163487 0.443956
vt 0.980092 0.827755
vt 0.935852 0.633654
vt 0.998008 0.823661
vt 0.953768 0.629559
vt 0.804909 0.452532
vt 0.816507 0.660929
vt 0.960086 0.417067
vn 0.091935 -0.014547 0.995659
vn 0.091934 -0.014548 0.995659
vn 0.091934 -0.014548 0.995659
vn 0.091934 -0.014548 0.995659
vn 0.222221 0.974976 -0.006275
vn 0.222220 0.974976 -0.006274
vn 0.222219 0.974977 -0.006274
vn 0.222219 0.974977 -0.006274
vn -0.091936 0.014548 -0.995659
vn -0.091936 0.014548 -0.995659
vn -0.091936 0.014548 -0.995659
vn -0.091937 0.014548 -0.995659
vn 0.970652 -0.221834 -0.092869
vn 0.970652 -0.221833 -0.092869
vn 0.970652 -0.221832 -0.092868
vn 0.970653 -0.221831 -0.092867
vn -0.970652 0.221832 0.092869
vn -0.970652 0.221832 0.092869
vn -0.970652 0.221833 0.092868
vn -0.970652 0.221834 0.092868
vn -0.214035 -0.972946 0.086974
vn -0.214032 -0.972947 0.086979
vn -0.214034 -0.972947 0.086975
vn -0.214032 -0.972947 0.086980
vn 0.970653 -0.221829 -0.092868
vn 0.970653 -0.221829 -0.092869
vn 0.970653 -0.221826 -0.092876
vn 0.970653 -0.221823 -0.092882
vn 0.183172 0.431761 0.883193
vn 0.183174 0.431762 0.883192
vn 0.183174 0.431762 0.883193
vn 0.183175 0.431763 0.883192
vn -0.970655 0.221825 0.092859
vn -0.970655 0.221826 0.092855
vn -0.970655 0.221825 0.092858
vn -0.970655 0.221828 0.092853
vn -0.220797 -0.669033 -0.709678
vn -0.220797 -0.669034 -0.709678
vn -0.220797 -0.669033 -0.709678
vn -0.220797 -0.669034 -0.709678
vn 0.953607 -0.218672 -0.206922
vn 0.953607 -0.218675 -0.206919
vn 0.953606 -0.218677 -0.206918
vn 0.953606 -0.218680 -0.206915
vn 0.220799 0.669035 0.709676
vn 0.220799 0.669035 0.709676
vn 0.220799 0.669036 0.709675
vn 0.220799 0.669036 0.709675
vn -0.953605 0.218676 0.206926
vn -0.953605 0.218681 0.206922
vn -0.953605 0.218679 0.206924
vn -0.953604 0.218684 0.206920
vn 0.091934 -0.014546 0.995659
vn 0.091947 -0.014551 0.995658
vn 0.091934 -0.014546 0.995659
vn 0.091948 -0.014551 0.995658
vn -0.092217 -0.711924 0.696176
vn 0.135877 0.218913 0.966237
vn -0.000000 -0.000000 0.000000
vn 0.000000 0.000000 0.000000
vn 0.091939 -0.014549 0.995658
vn 0.091935 -0.014548 0.995659
vn 0.091939 -0.014549 0.995658
vn 0.091935 -0.014548 0.995659
vn -0.083113 0.052937 -0.995133
vn -0.083113 0.052937 -0.995133
vn -0.083113 0.052937 -0.995133
vn -0.083113 0.052937 -0.995133
vn 0.995211 0.034681 -0.091389
vn 0.995211 0.034681 -0.091389
vn 0.995211 0.034681 -0.091389
vn 0.995211 0.034681 -0.091389
vn -0.995211 -0.034683 0.091386
vn -0.995211 -0.034682 0.091387
vn -0.995211 -0.034682 0.091387
vn -0.995211 -0.034681 0.091387
vn 0.083112 -0.052938 0.995133
vn 0.083112 -0.052938 0.995133
vn 0.083112 -0.052938 0.995133
vn 0.083112 -0.052938 0.995133
vn 0.083109 -0.052938 0.995133
vn 0.083112 -0.052938 0.995133
vn -0.222221 -0.974976 0.006275
vn -0.222220 -0.974976 0.006275
vn -0.222220 -0.974976 0.006275
vn -0.222219 -0.974977 0.006274
s 1
g pCube42
usemtl aiStandardSurface7SG
f 9/39/1 10/40/2 12/41/3
f 12/41/3 10/40/2 11/42/4
s 2
f 13/25/5 14/26/6 19/27/7
f 19/27/7 14/26/6 18/28/8
s 3
f 14/52/9 13/53/10 16/54/11
f 16/54/11 13/53/10 15/55/12
s 4
f 15/1/13 13/2/14 20/3/15
f 20/3/15 13/2/14 19/4/16
s 5
f 14/7/17 16/8/18 18/9/19
f 18/9/19 16/8/18 17/10/20
s 6
f 1/29/21 2/30/22 5/31/23
f 5/31/23 2/30/22 6/32/24
s 7
f 4/13/25 7/14/26 2/15/27
f 2/15/27 7/14/26 6/16/28
s 8
f 4/46/29 3/45/30 7/43/31
f 7/43/31 3/45/30 8/44/32
s 9
f 3/19/33 1/20/34 8/21/35
f 8/21/35 1/20/34 5/22/36
s 10
f 5/31/37 6/32/38 9/33/39
f 9/33/39 6/32/38 10/34/40
s 11
f 7/14/41 11/17/42 6/16/43
f 6/16/43 11/17/42 10/18/44
s 12
f 8/44/45 12/41/46 7/43/47
f 7/43/47 12/41/46 11/42/48
s 13
f 8/21/49 5/22/50 12/23/51
f 12/23/51 5/22/50 9/24/52
s 14
f 1/50/53 3/45/54 17/49/55
f 17/49/55 3/45/54 18/47/56
s 15
f 3/45/57 4/46/58 18/47/59
f 18/47/59 4/46/58 19/48/60
s 16
f 4/58/61 2/59/62 19/60/63
f 19/60/63 2/59/62 20/61/64
s 17
f 16/54/65 15/55/66 21/56/67
f 21/56/67 15/55/66 22/57/68
s 18
f 22/6/69 15/1/70 24/5/71
f 24/5/71 15/1/70 20/3/72
s 19
f 21/12/73 23/11/74 16/8/75
f 16/8/75 23/11/74 17/10/76
s 20
f 24/64/77 20/61/78 23/62/79
f 20/61/78 2/59/80 23/62/79
f 17/49/81 23/51/79 1/50/82
f 23/62/79 2/59/80 1/63/82
s 21
f 23/35/83 21/36/84 24/37/85
f 24/37/85 21/36/84 22/38/86
